<svg width="184" height="38" viewBox="0 0 184 38" fill="none" xmlns="http://www.w3.org/2000/svg">
<path d="M37.4622 28.155C37.0695 28.155 36.7388 28.0207 36.4702 27.752C36.2015 27.4833 36.0672 27.1527 36.0672 26.76V7.633C36.0672 7.24033 36.2015 6.90967 36.4702 6.641C36.7388 6.35167 37.0695 6.207 37.4622 6.207C37.8548 6.207 38.1855 6.35167 38.4542 6.641C38.7435 6.90967 38.8882 7.24033 38.8882 7.633V15.879H50.6372V7.633C50.6372 7.24033 50.7715 6.90967 51.0402 6.641C51.3088 6.35167 51.6395 6.207 52.0322 6.207C52.4248 6.207 52.7555 6.35167 53.0242 6.641C53.3135 6.90967 53.4582 7.24033 53.4582 7.633V26.76C53.4582 27.1527 53.3135 27.4833 53.0242 27.752C52.7555 28.0207 52.4248 28.155 52.0322 28.155C51.6395 28.155 51.3088 28.0207 51.0402 27.752C50.7715 27.4833 50.6372 27.1527 50.6372 26.76V18.514H38.8882V26.76C38.8882 27.1527 38.7435 27.4833 38.4542 27.752C38.1855 28.0207 37.8548 28.155 37.4622 28.155ZM64.8547 28.31C62.3334 28.31 60.3597 27.597 58.9337 26.171C57.5284 24.7243 56.8257 22.699 56.8257 20.095C56.8257 18.6277 57.0944 17.274 57.6317 16.034C58.169 14.794 58.9957 13.7917 60.1117 13.027C61.2277 12.2623 62.602 11.88 64.2347 11.88C65.764 11.88 67.0867 12.2417 68.2027 12.965C69.3187 13.6677 70.166 14.6183 70.7447 15.817C71.3234 16.995 71.6127 18.2867 71.6127 19.692C71.6127 20.0847 71.4784 20.4153 71.2097 20.684C70.9617 20.9527 70.6207 21.087 70.1867 21.087H59.6777C59.843 22.5337 60.3804 23.66 61.2897 24.466C62.199 25.272 63.47 25.675 65.1027 25.675C65.9707 25.675 66.725 25.5923 67.3657 25.427C68.027 25.2617 68.6677 25.024 69.2877 24.714C69.453 24.6313 69.639 24.59 69.8457 24.59C70.1764 24.59 70.4657 24.7037 70.7137 24.931C70.9617 25.1583 71.0857 25.4477 71.0857 25.799C71.0857 26.2537 70.817 26.636 70.2797 26.946C69.4737 27.4007 68.678 27.7417 67.8927 27.969C67.1074 28.1963 66.0947 28.31 64.8547 28.31ZM68.8227 18.793C68.7607 17.7803 68.492 16.933 68.0167 16.251C67.562 15.569 66.9937 15.073 66.3117 14.763C65.6297 14.4323 64.9374 14.267 64.2347 14.267C63.532 14.267 62.8397 14.4323 62.1577 14.763C61.4757 15.073 60.9074 15.569 60.4527 16.251C59.998 16.933 59.7397 17.7803 59.6777 18.793H68.8227ZM76.0403 28.155C75.6476 28.155 75.317 28.0207 75.0483 27.752C74.7796 27.4833 74.6453 27.1527 74.6453 26.76V6.641C74.6453 6.24833 74.7796 5.91767 75.0483 5.649C75.317 5.35967 75.6476 5.215 76.0403 5.215C76.4536 5.215 76.7946 5.34933 77.0633 5.618C77.332 5.88667 77.4663 6.22767 77.4663 6.641V26.76C77.4663 27.1527 77.3216 27.4833 77.0323 27.752C76.7636 28.0207 76.433 28.155 76.0403 28.155ZM83.06 35.285C82.6673 35.285 82.3367 35.1403 82.068 34.851C81.7993 34.5823 81.665 34.2517 81.665 33.859V13.43C81.665 13.0373 81.7993 12.7067 82.068 12.438C82.3367 12.1693 82.6673 12.035 83.06 12.035C83.4527 12.035 83.7833 12.1693 84.052 12.438C84.3413 12.7067 84.486 13.0373 84.486 13.43V14.236C85.9947 12.6653 87.7617 11.88 89.787 11.88C91.0683 11.88 92.2773 12.2107 93.414 12.872C94.5713 13.5127 95.5013 14.4633 96.204 15.724C96.9273 16.964 97.289 18.421 97.289 20.095C97.289 21.769 96.9273 23.2363 96.204 24.497C95.5013 25.737 94.5713 26.6877 93.414 27.349C92.2773 27.9897 91.0683 28.31 89.787 28.31C87.7617 28.31 85.9947 27.5247 84.486 25.954V33.859C84.486 34.2723 84.3517 34.6133 84.083 34.882C83.8143 35.1507 83.4733 35.285 83.06 35.285ZM89.384 25.675C90.9133 25.675 92.143 25.1893 93.073 24.218C94.003 23.2467 94.468 21.8723 94.468 20.095C94.468 18.3177 94.003 16.9433 93.073 15.972C92.143 15.0007 90.9133 14.515 89.384 14.515C88.4333 14.515 87.5343 14.732 86.687 15.166C85.8603 15.5793 85.1267 16.1373 84.486 16.84V23.35C85.1267 24.0527 85.8603 24.621 86.687 25.055C87.5343 25.4683 88.4333 25.675 89.384 25.675ZM107.476 28.31C104.851 28.31 102.392 27.814 100.098 26.822C99.8498 26.7187 99.6432 26.5533 99.4778 26.326C99.3125 26.078 99.2298 25.8197 99.2298 25.551C99.2298 25.1997 99.3435 24.9 99.5708 24.652C99.8188 24.3833 100.129 24.249 100.501 24.249C100.707 24.249 100.904 24.2903 101.09 24.373C102.991 25.2203 105.027 25.644 107.197 25.644C110.813 25.644 112.622 24.4557 112.622 22.079C112.622 21.459 112.384 20.9423 111.909 20.529C111.454 20.1157 110.886 19.7953 110.204 19.568C109.522 19.32 108.55 19.0307 107.29 18.7C105.616 18.266 104.262 17.8527 103.229 17.46C102.195 17.0467 101.307 16.437 100.563 15.631C99.8188 14.825 99.4468 13.7503 99.4468 12.407C99.4468 11.229 99.7568 10.1647 100.377 9.214C100.997 8.24267 101.906 7.478 103.105 6.92C104.324 6.34133 105.781 6.052 107.476 6.052C109.749 6.052 111.805 6.393 113.645 7.075C114.223 7.28167 114.513 7.695 114.513 8.315C114.513 8.64567 114.399 8.94533 114.172 9.214C113.944 9.48267 113.645 9.617 113.273 9.617C113.149 9.617 112.983 9.57567 112.777 9.493C111.165 8.935 109.501 8.656 107.786 8.656C106.153 8.656 104.82 8.966 103.787 9.586C102.774 10.206 102.268 11.074 102.268 12.19C102.268 12.934 102.505 13.5437 102.981 14.019C103.477 14.4737 104.086 14.8353 104.81 15.104C105.554 15.352 106.556 15.6207 107.817 15.91C109.449 16.3027 110.762 16.6953 111.754 17.088C112.766 17.4807 113.624 18.0903 114.327 18.917C115.05 19.7437 115.412 20.8597 115.412 22.265C115.412 23.4223 115.081 24.466 114.42 25.396C113.758 26.3053 112.828 27.0183 111.63 27.535C110.431 28.0517 109.046 28.31 107.476 28.31ZM119.653 35.285C119.261 35.285 118.93 35.1403 118.661 34.851C118.393 34.5823 118.258 34.2517 118.258 33.859V13.43C118.258 13.0373 118.393 12.7067 118.661 12.438C118.93 12.1693 119.261 12.035 119.653 12.035C120.046 12.035 120.377 12.1693 120.645 12.438C120.935 12.7067 121.079 13.0373 121.079 13.43V14.236C122.588 12.6653 124.355 11.88 126.38 11.88C127.662 11.88 128.871 12.2107 130.007 12.872C131.165 13.5127 132.095 14.4633 132.797 15.724C133.521 16.964 133.882 18.421 133.882 20.095C133.882 21.769 133.521 23.2363 132.797 24.497C132.095 25.737 131.165 26.6877 130.007 27.349C128.871 27.9897 127.662 28.31 126.38 28.31C124.355 28.31 122.588 27.5247 121.079 25.954V33.859C121.079 34.2723 120.945 34.6133 120.676 34.882C120.408 35.1507 120.067 35.285 119.653 35.285ZM125.977 25.675C127.507 25.675 128.736 25.1893 129.666 24.218C130.596 23.2467 131.061 21.8723 131.061 20.095C131.061 18.3177 130.596 16.9433 129.666 15.972C128.736 15.0007 127.507 14.515 125.977 14.515C125.027 14.515 124.128 14.732 123.28 15.166C122.454 15.5793 121.72 16.1373 121.079 16.84V23.35C121.72 24.0527 122.454 24.621 123.28 25.055C124.128 25.4683 125.027 25.675 125.977 25.675ZM141.145 28.31C140.235 28.31 139.388 28.124 138.603 27.752C137.838 27.38 137.228 26.8427 136.774 26.14C136.319 25.4167 136.092 24.59 136.092 23.66C136.092 22.1307 136.691 20.9113 137.89 20.002C139.109 19.0927 140.886 18.638 143.222 18.638H146.973V18.39C146.973 17.026 146.632 16.0443 145.95 15.445C145.288 14.8457 144.245 14.546 142.819 14.546C142.033 14.546 141.331 14.608 140.711 14.732C140.111 14.856 139.44 15.042 138.696 15.29C138.53 15.3313 138.396 15.352 138.293 15.352C137.983 15.352 137.714 15.2383 137.487 15.011C137.259 14.7837 137.146 14.5047 137.146 14.174C137.146 13.616 137.414 13.2233 137.952 12.996C139.708 12.252 141.496 11.88 143.315 11.88C144.741 11.88 145.939 12.1693 146.911 12.748C147.903 13.3267 148.626 14.081 149.081 15.011C149.556 15.9203 149.794 16.9123 149.794 17.987V26.76C149.794 27.1527 149.649 27.4833 149.36 27.752C149.091 28.0207 148.76 28.155 148.368 28.155C147.975 28.155 147.644 28.0207 147.376 27.752C147.107 27.4833 146.973 27.1527 146.973 26.76V25.954C145.443 27.5247 143.501 28.31 141.145 28.31ZM142.199 25.83C143.108 25.83 143.986 25.613 144.834 25.179C145.681 24.7243 146.394 24.1663 146.973 23.505V20.901H143.594C140.473 20.901 138.913 21.7173 138.913 23.35C138.913 24.094 139.161 24.6933 139.657 25.148C140.173 25.6027 141.021 25.83 142.199 25.83ZM161.138 28.31C159.65 28.31 158.276 27.9793 157.015 27.318C155.754 26.6567 154.742 25.706 153.977 24.466C153.233 23.226 152.861 21.769 152.861 20.095C152.861 18.421 153.233 16.964 153.977 15.724C154.742 14.484 155.754 13.5333 157.015 12.872C158.276 12.2107 159.65 11.88 161.138 11.88C162.233 11.88 163.174 12.0247 163.959 12.314C164.765 12.5827 165.509 12.934 166.191 13.368C166.604 13.6367 166.811 13.9983 166.811 14.453C166.811 14.763 166.687 15.0523 166.439 15.321C166.212 15.569 165.943 15.693 165.633 15.693C165.406 15.693 165.178 15.631 164.951 15.507C164.269 15.1557 163.68 14.9077 163.184 14.763C162.709 14.5977 162.109 14.515 161.386 14.515C159.609 14.515 158.214 15.0317 157.201 16.065C156.188 17.0777 155.682 18.421 155.682 20.095C155.682 21.769 156.188 23.1227 157.201 24.156C158.214 25.1687 159.609 25.675 161.386 25.675C162.109 25.675 162.709 25.6027 163.184 25.458C163.68 25.2927 164.269 25.0343 164.951 24.683C165.178 24.559 165.406 24.497 165.633 24.497C165.943 24.497 166.212 24.6313 166.439 24.9C166.687 25.148 166.811 25.427 166.811 25.737C166.811 26.1917 166.604 26.5533 166.191 26.822C165.509 27.256 164.765 27.6177 163.959 27.907C163.174 28.1757 162.233 28.31 161.138 28.31ZM176.598 28.31C174.077 28.31 172.103 27.597 170.677 26.171C169.272 24.7243 168.569 22.699 168.569 20.095C168.569 18.6277 168.838 17.274 169.375 16.034C169.913 14.794 170.739 13.7917 171.855 13.027C172.971 12.2623 174.346 11.88 175.978 11.88C177.508 11.88 178.83 12.2417 179.946 12.965C181.062 13.6677 181.91 14.6183 182.488 15.817C183.067 16.995 183.356 18.2867 183.356 19.692C183.356 20.0847 183.222 20.4153 182.953 20.684C182.705 20.9527 182.364 21.087 181.93 21.087H171.421C171.587 22.5337 172.124 23.66 173.033 24.466C173.943 25.272 175.214 25.675 176.846 25.675C177.714 25.675 178.469 25.5923 179.109 25.427C179.771 25.2617 180.411 25.024 181.031 24.714C181.197 24.6313 181.383 24.59 181.589 24.59C181.92 24.59 182.209 24.7037 182.457 24.931C182.705 25.1583 182.829 25.4477 182.829 25.799C182.829 26.2537 182.561 26.636 182.023 26.946C181.217 27.4007 180.422 27.7417 179.636 27.969C178.851 28.1963 177.838 28.31 176.598 28.31ZM180.566 18.793C180.504 17.7803 180.236 16.933 179.76 16.251C179.306 15.569 178.737 15.073 178.055 14.763C177.373 14.4323 176.681 14.267 175.978 14.267C175.276 14.267 174.583 14.4323 173.901 14.763C173.219 15.073 172.651 15.569 172.196 16.251C171.742 16.933 171.483 17.7803 171.421 18.793H180.566Z" fill="white"/>
<rect x="5" y="13" width="12" height="3" rx="1.5" fill="#FF4C5D"/>
<rect x="20" y="13" width="12" height="3" rx="1.5" fill="#E04352"/>
<rect x="24" y="7" width="8" height="3" rx="1.5" fill="#76DB4B"/>
<rect x="9" y="7" width="12" height="3" rx="1.5" fill="#84F554"/>
<rect y="19" width="19" height="3" rx="1.5" fill="#D462FF"/>
<rect x="4" y="25" width="8" height="3" rx="1.5" fill="#3DB6FB"/>
<rect x="15" y="25" width="17" height="3" rx="1.5" fill="#38A7E6"/>
<rect x="22" y="19" width="10" height="3" rx="1.5" fill="#BD57E3"/>
</svg>
